<mxfile host="app.diagrams.net" modified="2023-02-25T08:06:46.259Z" agent="5.0 (Macintosh; Intel Mac OS X 10_15_7) AppleWebKit/537.36 (KHTML, like Gecko) Chrome/110.0.0.0 Safari/537.36" etag="4Fk4sKN1UpesxOJBQlbL" version="20.8.23" type="github">
  <diagram name="第 1 页" id="Jk1bQOxPS3HD9sCwl8Wc">
    <mxGraphModel dx="1247" dy="692" grid="1" gridSize="10" guides="1" tooltips="1" connect="1" arrows="1" fold="1" page="1" pageScale="1" pageWidth="827" pageHeight="1169" math="0" shadow="0">
      <root>
        <mxCell id="0" />
        <mxCell id="1" parent="0" />
        <mxCell id="ZcJrrVffbv_kd-z43Npl-1" value="业务系统" style="swimlane;whiteSpace=wrap;html=1;" vertex="1" parent="1">
          <mxGeometry x="80" y="20" width="200" height="490" as="geometry" />
        </mxCell>
        <mxCell id="ZcJrrVffbv_kd-z43Npl-2" value="交易系统" style="swimlane;whiteSpace=wrap;html=1;" vertex="1" parent="1">
          <mxGeometry x="280" y="20" width="200" height="490" as="geometry" />
        </mxCell>
        <mxCell id="ZcJrrVffbv_kd-z43Npl-3" value="渠道路由系统" style="swimlane;whiteSpace=wrap;html=1;" vertex="1" parent="1">
          <mxGeometry x="480" y="20" width="200" height="490" as="geometry" />
        </mxCell>
        <mxCell id="ZcJrrVffbv_kd-z43Npl-4" value="xx渠道接入网关" style="swimlane;whiteSpace=wrap;html=1;" vertex="1" parent="1">
          <mxGeometry x="680" y="20" width="200" height="490" as="geometry" />
        </mxCell>
        <mxCell id="ZcJrrVffbv_kd-z43Npl-5" value="渠道" style="swimlane;whiteSpace=wrap;html=1;" vertex="1" parent="1">
          <mxGeometry x="880" y="20" width="200" height="490" as="geometry" />
        </mxCell>
      </root>
    </mxGraphModel>
  </diagram>
</mxfile>
